<mxfile host="app.diagrams.net" modified="2023-09-09T06:40:51.482Z" agent="Mozilla/5.0 (Windows NT 10.0; Win64; x64) AppleWebKit/537.36 (KHTML, like Gecko) Chrome/116.0.0.0 Safari/537.36 Edg/116.0.1938.76" etag="H4eHbhJZFXA4eZIzUIeH" version="21.7.4" type="github">
  <diagram name="Page-1" id="dd472eb7-4b8b-5cd9-a60b-b15522922e76">
    <mxGraphModel dx="1386" dy="751" grid="1" gridSize="10" guides="1" tooltips="1" connect="1" arrows="1" fold="1" page="1" pageScale="1" pageWidth="1100" pageHeight="850" background="none" math="0" shadow="0">
      <root>
        <mxCell id="0" />
        <mxCell id="1" parent="0" />
        <mxCell id="45236fa5f4b8e91a-1" value="企业融资" style="ellipse;whiteSpace=wrap;html=1;rounded=0;shadow=0;dashed=0;comic=0;fontFamily=Verdana;fontSize=22;fontColor=#0069D1;fillColor=#f5f5f5;strokeColor=#666666;" parent="1" vertex="1">
          <mxGeometry x="460" y="40" width="160" height="160" as="geometry" />
        </mxCell>
        <mxCell id="45236fa5f4b8e91a-2" value="利润分红" style="ellipse;whiteSpace=wrap;html=1;rounded=0;shadow=0;dashed=0;comic=0;fontFamily=Verdana;fontSize=22;fontColor=#0069D1;fillColor=#f5f5f5;strokeColor=#666666;" parent="1" vertex="1">
          <mxGeometry x="460" y="520" width="160" height="160" as="geometry" />
        </mxCell>
        <mxCell id="45236fa5f4b8e91a-3" value="扩大生产" style="ellipse;whiteSpace=wrap;html=1;rounded=0;shadow=0;dashed=0;comic=0;fontFamily=Verdana;fontSize=22;fontColor=#0069D1;fillColor=#f5f5f5;strokeColor=#666666;" parent="1" vertex="1">
          <mxGeometry x="700" y="280" width="160" height="160" as="geometry" />
        </mxCell>
        <mxCell id="45236fa5f4b8e91a-4" value="资本投资" style="ellipse;whiteSpace=wrap;html=1;rounded=0;shadow=0;dashed=0;comic=0;fontFamily=Verdana;fontSize=22;fontColor=#0069D1;fillColor=#f5f5f5;strokeColor=#666666;" parent="1" vertex="1">
          <mxGeometry x="200" y="280" width="160" height="160" as="geometry" />
        </mxCell>
        <mxCell id="mN864JX6ItvmcDGjCuba-2" value="" style="shape=flexArrow;endArrow=classic;html=1;rounded=0;" edge="1" parent="1">
          <mxGeometry width="50" height="50" relative="1" as="geometry">
            <mxPoint x="320" y="240" as="sourcePoint" />
            <mxPoint x="400" y="160" as="targetPoint" />
          </mxGeometry>
        </mxCell>
        <mxCell id="mN864JX6ItvmcDGjCuba-3" value="" style="shape=flexArrow;endArrow=classic;html=1;rounded=0;" edge="1" parent="1">
          <mxGeometry width="50" height="50" relative="1" as="geometry">
            <mxPoint x="680" y="160" as="sourcePoint" />
            <mxPoint x="760" y="240" as="targetPoint" />
            <Array as="points">
              <mxPoint x="680" y="160" />
            </Array>
          </mxGeometry>
        </mxCell>
        <mxCell id="mN864JX6ItvmcDGjCuba-5" value="" style="shape=flexArrow;endArrow=classic;html=1;rounded=0;width=11;endSize=10.98;" edge="1" parent="1">
          <mxGeometry width="50" height="50" relative="1" as="geometry">
            <mxPoint x="760" y="480" as="sourcePoint" />
            <mxPoint x="680" y="560" as="targetPoint" />
            <Array as="points">
              <mxPoint x="760" y="480" />
            </Array>
          </mxGeometry>
        </mxCell>
        <mxCell id="mN864JX6ItvmcDGjCuba-7" value="" style="shape=flexArrow;endArrow=classic;html=1;rounded=0;" edge="1" parent="1">
          <mxGeometry width="50" height="50" relative="1" as="geometry">
            <mxPoint x="400" y="560" as="sourcePoint" />
            <mxPoint x="320" y="480" as="targetPoint" />
          </mxGeometry>
        </mxCell>
        <mxCell id="mN864JX6ItvmcDGjCuba-8" value="证券市场" style="text;html=1;align=center;verticalAlign=middle;resizable=0;points=[];autosize=1;strokeColor=none;fillColor=none;" vertex="1" parent="1">
          <mxGeometry x="505" y="345" width="70" height="30" as="geometry" />
        </mxCell>
      </root>
    </mxGraphModel>
  </diagram>
</mxfile>
